<?xml version="1.0" standalone="no"?>
<!DOCTYPE svg PUBLIC "-//W3C//DTD SVG 20010904//EN"
 "http://www.w3.org/TR/2001/REC-SVG-20010904/DTD/svg10.dtd">
<svg version="1.0" xmlns="http://www.w3.org/2000/svg"
 width="512.000000pt" height="512.000000pt" viewBox="0 0 512.000000 512.000000"
 preserveAspectRatio="xMidYMid meet">
<metadata>
Created by potrace 1.14, written by Peter Selinger 2001-2017
</metadata>
<g transform="translate(0.000000,512.000000) scale(0.100000,-0.100000)"
fill="#000000" stroke="none">
<path d="M1207 4813 c-2 -1 -21 -5 -43 -8 -67 -10 -77 -13 -144 -30 -194 -49
-364 -139 -525 -279 -107 -93 -156 -149 -237 -271 -88 -132 -183 -343 -204
-455 -3 -14 -9 -41 -14 -60 -11 -42 -17 -77 -26 -150 -10 -73 -10 -362 0 -425
59 -401 254 -765 631 -1175 119 -129 365 -368 515 -500 47 -41 87 -77 90 -80
3 -3 43 -39 90 -81 73 -65 165 -144 439 -378 29 -25 61 -53 71 -61 9 -8 41
-35 70 -60 29 -25 57 -50 64 -55 6 -6 90 -78 186 -160 96 -82 177 -152 180
-155 3 -3 35 -31 72 -62 75 -63 129 -79 190 -59 18 6 80 52 138 103 145 125
192 166 370 318 85 72 171 146 190 164 19 17 96 83 170 146 160 136 186 159
216 185 12 11 55 49 95 85 307 271 326 290 503 465 322 319 516 570 647 836
127 257 178 485 174 772 -4 233 -39 404 -129 616 -33 77 -110 219 -126 231 -4
3 -13 17 -21 31 -45 82 -226 259 -349 340 -230 151 -473 220 -759 214 -80 -1
-168 -8 -196 -15 -27 -6 -61 -14 -74 -16 -43 -9 -145 -46 -221 -82 -185 -86
-381 -248 -511 -422 -27 -36 -55 -72 -61 -82 -7 -9 -33 -50 -58 -92 -25 -41
-47 -75 -50 -76 -3 0 -23 31 -44 68 -96 163 -252 344 -391 451 -44 34 -85 66
-92 71 -7 6 -14 10 -17 10 -2 0 -31 16 -64 36 -102 60 -272 120 -397 140 -41
6 -343 13 -348 7z"/>
</g>
</svg>
